inDegrees=yes
name=ik_CORRECTED_MT_2026-09-08_17h41_01210270-000-000_orientations
DataType=double
version=3
OpenSimVersion=4.5
endheader
time	pelvis_tilt	pelvis_list	pelvis_rotation	pelvis_tx	pelvis_ty	pelvis_tz	hip_flexion_r	hip_adduction_r	hip_rotation_r	knee_angle_r	knee_angle_r_beta	ankle_angle_r	subtalar_angle_r	mtp_angle_r	hip_flexion_l	hip_adduction_l	hip_rotation_l	knee_angle_l	knee_angle_l_beta	ankle_angle_l	subtalar_angle_l	mtp_angle_l	lumbar_extension	lumbar_bending	lumbar_rotation	arm_flex_r	arm_add_r	arm_rot_r	elbow_flex_r	pro_sup_r	wrist_flex_r	wrist_dev_r	arm_flex_l	arm_add_l	arm_rot_l	elbow_flex_l	pro_sup_l	wrist_flex_l	wrist_dev_l
128.075	5.170280661096821	0.8019376204596461	-3144.841392452032	0	0.9399999999999999	0	3.566841942380745	8.831795410775706	-1.69729051344924	1.605601588006168	0.02802303418595712	-6.464468652862247	0	0	38.18045003170879	-19.69664426409463	6.828357532496382	82.13523614887995	1.433530302701023	19.42992321947684	0	0	-10.18952412308867	0.3516118854329056	8.109833962692152	-2.71880572865311	-10.39616305127291	-9.968040090662525	4.795446175719601	45.00000025534023	0	0	5.885303428148473	-1.70662999951142	8.031675216890994	4.841623045891146	45.00000025534023	0	0
128.1	4.361464918606892	0.9818824531045266	-3146.374306504977	0	0.9399999999999999	0	2.566214015367739	7.891467874530749	-0.5392679119005286	1.950185742301688	0.03403716222861411	-5.61400108220754	0	0	38.37527362763873	-17.49855100123037	5.712044590772272	80.7820478525568	1.409912711530731	24.46821586718576	0	0	-10.34854080140981	0.2011105369338492	8.081748696833987	-1.435379717541165	-12.36527067080704	-10.62713255498767	4.879222395105363	45.00000025534023	0	0	5.484886856827266	-2.443973922093357	6.109831562618358	1.658446691555402	45.00000025534023	0	0
128.125	3.609095963286782	1.12153818915593	-3147.820776385227	0	0.9399999999999999	0	1.694576858179258	6.969398421482299	0.4429957254492422	2.363823071352321	0.04125649552970284	-4.763586431719212	0	0	38.23281127299414	-15.839268411516	4.433297440384389	78.01622201009457	1.361639944043019	28.87745731901295	0	0	-10.59443640345877	0.3206817246161578	8.032273572311727	0.05686058566305809	-14.60458782427686	-10.91176836625121	4.959006138006854	45.00000025534023	0	0	4.378956061000474	-3.186426558042248	4.201572759563184	0.3079598674450766	45.00000025534023	0	0
128.15	3.205726400126901	0.1807789686154122	-3149.193793508797	0	0.9399999999999999	0	1.965746635147187	6.303678124884422	1.398205844031801	2.801967628656608	0.04890356065435563	-3.780370647882266	0	0	38.62417343076346	-14.80728071615997	3.165994191071361	73.2813742295466	1.279001260691711	32.24528826852476	0	0	-9.982881208445029	0.7255033270961979	8.151165261145337	1.804238441461777	-16.71991313330772	-10.7445941449372	5.218451712688495	45.00000025534023	0	0	2.976054722139147	-4.017227569193834	2.547661605390587	0.1511621460260696	45.00000025534023	0	0
128.175	3.042560657379317	-0.63814261252493	-3150.288519363753	0	0.9399999999999999	0	2.167454421293201	5.8914939227527	2.056040525086896	3.316230806020011	0.05787914632111459	-2.741551000671257	0	0	38.48411041232846	-14.20707004353322	1.760353408384178	66.96089222525559	1.168688039403783	34.22595135871639	0	0	-9.629609296657117	1.300444493261188	8.225739401739897	3.527658178477958	-18.61464951711753	-10.06878169217447	5.937583942875798	45.00000025534023	0	0	1.633920558531156	-4.832291755139276	1.363767147874858	0.1091248712819093	45.00000025534023	0	0
128.2	3.053179313744312	-0.878817774320177	-3151.269851183061	0	0.9399999999999999	0	1.907621473064591	5.654673691025392	2.546665192821059	4.020542539219464	0.07017170502587289	-1.70181138827646	0	0	37.87896632312724	-13.62940522375527	0.3928189144025928	59.91716789622135	1.045751858259307	34.62834240527464	0	0	-9.824281745180352	2.038895939208982	8.025308823844709	5.22370228397661	-20.35670047058036	-8.102255506219558	7.156702370995919	45.00000025534023	0	0	0.1800520792036139	-5.513362741777074	0.4249199825550069	0.09413357631310526	45.00000025534023	0	0
128.225	3.007928325831622	-1.072222052470735	-3152.176796557043	0	0.9399999999999999	0	1.457839226468596	5.310575848760984	3.108594469515694	4.696237994884364	0.08196481546798877	-0.5091279856331142	0	0	37.71076894374049	-12.82473761511096	-0.4924554661798194	52.70168553917842	0.9198179340093464	33.09378394976666	0	0	-10.2052028514764	2.439792738090246	7.92303780452285	7.028912768347113	-21.82279745191918	-5.519423763316474	8.427926597660864	45.00000025534023	0	0	-1.058735942310796	-6.255735530119512	0.131439997039256	0.09303430234461962	45.00000025534023	0	0
128.25	2.913978064840088	-1.162800809185561	-3153.219884724974	0	0.9399999999999999	0	0.8881900549799028	4.918564709831397	3.937142154451699	5.381349169041896	0.09392226119924199	0.692033796999745	0	0	38.06592062535998	-12.15402479241893	-0.6078428499408011	46.11380494338407	0.8048377268844894	30.06087453835066	0	0	-10.5148827711372	2.762188731111841	7.875006791142368	8.749630306959487	-23.40931049487444	-2.286666949675284	9.522977489568099	45.00000025534023	0	0	-2.569652575969013	-6.700243110362696	-0.2144232215379356	0.1034097454314401	45.00000025534023	0	0
128.275	2.851729629892085	-0.9514976419659139	-3154.234506473089	0	0.9399999999999999	0	-0.11041132799564	4.518910117236042	4.939636275297042	6.027795337754683	0.1052048752801829	1.960079643014336	0	0	38.14487476911879	-11.28636426604063	-0.2251419655808738	39.39641545778194	0.687597163221884	25.34578940161849	0	0	-11.1275924992837	2.977575623083267	7.847925726098675	10.80972870731779	-24.9762837145984	1.606300482345283	10.07147576788446	45.00000025534023	0	0	-4.135301246990643	-6.958505456408829	-0.7197021161374447	0.131592594730107	45.00000025534023	0	0
128.3	2.886607696869244	-1.136915309588011	-3155.25924368585	0	0.9399999999999999	0	-0.7652031709804377	4.221293682192657	6.267041610601256	6.556515041342916	0.114432774927966	3.010400154000362	0	0	38.22604180333745	-10.65043819035713	0.06230842220944075	32.41764002404052	0.5657945541458008	19.12364512882544	0	0	-11.32950406553761	3.259721883037646	7.84364520601709	13.02811582634859	-26.16834562031536	6.150178808634902	10.19243330035882	45.00000025534023	0	0	-5.825459829792831	-7.013065008215083	-1.47335627330904	0.2051097942806019	45.00000025534023	0	0
128.325	3.095232192713465	-1.138233638439811	-3156.055206743936	0	0.9399999999999999	0	-1.745878616175297	4.036170860212841	7.565698893349484	6.998694354227021	0.1221502598219998	4.041186695017106	0	0	37.57297516515769	-10.56193300401151	0.4611709733370102	25.01962817286203	0.4366748892411755	11.47812940191727	0	0	-11.74085925157801	3.601159465350142	7.716322510726572	15.14371012398746	-26.94683300002804	10.77257381973201	10.07385765001915	45.00000025534023	0	0	-7.546017378570956	-7.067708158812018	-2.171332763196617	0.4615490336498188	45.00000025534023	0	0
128.35	3.443619501493059	-0.6439429436194732	-3156.803583127568	0	0.9399999999999999	0	-3.562703567979713	3.892760596355897	8.849330867402976	7.061690875172546	0.1232497565298008	5.077077636832097	0	0	35.84344388142426	-10.28433224657661	0.884375166752625	17.43277665579493	0.3042593504084277	1.297936832650543	0	0	-12.75463153105451	3.954666988148142	7.702804721045744	17.01916582751937	-27.35109904793869	14.76165261512304	9.905148102261037	45.00000025534023	0	0	-9.449442539543114	-7.205343750007542	-2.679938392903371	1.492587689353696	45.00000025534023	0	0
128.375	3.816878100072838	-0.339176799927069	-3157.47978994395	0	0.9399999999999999	0	-5.104746980147201	3.678624480278285	9.694972663743808	7.336146582450797	0.1280399122726961	6.343923269780099	0	0	34.21763845911605	-9.989766604301739	1.815854913986693	10.5414672449061	0.1839833114147469	-8.478885655937946	0	0	-13.39145608951484	4.322363215056113	7.780579330035831	18.20441477612177	-27.36963093693451	17.64188390308902	9.700948580638462	45.00000025534023	0	0	-11.73562542031292	-7.356807281331084	-3.039918436075344	3.088724457174764	45.00000025534023	0	0
128.4	4.050777767248456	-0.07437555652920885	-3158.008772695849	0	0.9399999999999999	0	-6.412650693710877	3.335898009689072	10.19099959551595	7.92270076561457	0.1382772140102498	7.710533683850934	0	0	33.51104049619875	-10.46417005103447	0.8090192173062554	6.381318602495775	0.1113750202323145	-18.70944744626286	0	0	-13.79559323740395	4.484328432485789	7.807949717861562	18.61175518249571	-27.06821168597307	19.15288437013101	9.407336487976496	45.00000025534023	0	0	-13.8941257587919	-7.573705946554847	-3.476333007940256	4.329385947002362	45.00000025534023	0	0
128.425	4.113879832718347	-0.05567313548582347	-3158.72601758273	0	0.9399999999999999	0	-7.405096643493462	2.787579855194521	10.68452454979118	8.708423827745937	0.1519906684532941	9.384746088288836	0	0	35.03414427428341	-11.15372530003282	2.373504303708371	4.821985726056767	0.08415952740385992	-26.87916791259673	0	0	-13.82960244896731	4.328866811046945	8.029555088733526	18.26451941966725	-26.49223290405425	19.28105103465212	9.00739736385677	45.00000025534023	0	0	-15.66445926891683	-7.824626313906718	-4.026230919871846	4.949359568611425	45.00000025534023	0	0
128.45	3.992640644220301	-0.2428896982254531	-3159.774618339341	0	0.9399999999999999	0	-8.004879873333842	1.991457259771289	10.99102126125729	9.927180105302533	0.1732619782760066	11.24375063120997	0	0	35.0708025648898	-10.97201786086551	0.5145909977082077	4.405974997534468	0.07689877046752551	-31.00459563840071	0	0	-13.66173864090236	3.94407121524272	8.608770556227089	17.32323744187129	-25.76988016315051	18.23271447569184	8.681659445874445	45.00000025534023	0	0	-16.82839251304161	-7.956031895742839	-4.661109384349841	4.831953177287987	45.00000025534023	0	0
128.475	3.857697387153447	-0.05705791176431547	-3161.081278234136	0	0.9399999999999999	0	-8.813477602455874	0.7565600620874843	11.26570858236659	11.50394734253627	0.2007817581033098	13.10265559456771	0	0	32.95307291601949	-12.01773635365427	-2.416705963618027	4.122429631559533	0.07194997025249059	-34.59366111078978	0	0	-13.80204581420461	3.358621487817392	9.521513922496922	15.71875749392048	-24.74890063771788	16.13547376344911	8.510156161120589	45.00000025534023	0	0	-17.42277554342933	-7.977707803215956	-5.474961698492879	4.073680743770636	45.00000025534023	0	0
128.5	3.479535640933392	1.31010898312441	-3161.784268421942	0	0.9399999999999999	0	-10.57531264136023	-1.014699620729456	10.83786364403594	13.39844051967756	0.2338469017009936	15.00226161962379	0	0	28.25504681136779	-11.21684786817684	-3.470850753949184	3.327376229912699	0.05807367066457243	-33.63534818628523	0	0	-14.5805505868086	2.369675245766346	9.752979390131149	13.21746729880942	-23.38715314548772	13.21194397592114	8.306636318096636	45.00000025534023	0	0	-17.99486042985943	-7.929659894939422	-6.580629362551209	2.881992182907463	45.00000025534023	0	0
128.525	1.772491972796389	0.8426901724541795	-3162.100505678653	0	0.9399999999999999	0	-9.876136216643639	-4.02599270137758	10.30191705943487	15.84055812262757	0.2764698945933828	17.21906139638852	0	0	26.46995169872919	-9.089935425520084	-4.380489399332188	3.339785799052587	0.05829025850481736	-32.03364119381632	0	0	-13.10541828440089	0.3977584164156173	9.307098498009793	10.58600805305688	-21.58808891295	10.00493034066706	7.557135927105741	45.00000025534023	0	0	-18.28982166499259	-7.773652908610786	-8.172432506595875	1.180773954012274	45.00000025534023	0	0
